<svg width="84" height="24" viewBox="0 0 84 24" fill="none" xmlns="http://www.w3.org/2000/svg">
<g clip-path="url(#clip0_214_12)">
<path d="M80.0855 20.8981C81.7334 20.8981 82.9007 20.6038 83.7705 19.9698V17.0943C82.8779 17.7057 81.8021 18.0906 80.2915 18.0906C77.7509 18.0906 76.698 16.1434 76.698 13.0641C76.698 9.82641 77.9798 8.17358 80.3144 8.17358C81.6877 8.17358 83.0381 8.64905 83.7476 9.10188V6.1132C82.9923 5.70566 81.6877 5.41132 79.9024 5.41132C75.3476 5.41132 72.9901 8.64905 72.9901 13.1774C73.013 18.1358 75.3247 20.8981 80.0855 20.8981ZM57.8152 19.5849V16.7094C56.7165 17.4566 54.8397 18.1132 53.1231 18.1132C50.5138 18.1132 49.5296 16.8906 49.3694 14.4H57.9754V12.5434C57.9754 7.35849 55.6637 5.41132 52.116 5.41132C47.7672 5.41132 45.7073 8.69433 45.7073 13.2C45.7073 18.3849 48.2937 20.8981 52.8255 20.8981C55.0915 20.8981 56.7623 20.2868 57.8152 19.5849ZM25.1536 5.68301V11.5698H20.3928V5.68301H16.8223V20.6038H20.3928V14.3774H25.1536V20.6038H28.7242V5.68301H25.1536ZM44.8146 17.7962H43.2353V5.68301H32.8441V6.95094C32.8441 10.5962 32.6152 15.3057 31.3563 17.7962H30.2119V24H33.5078V20.6038H41.4958V24H44.7917V17.7962H44.8146ZM69.1907 20.6038H73.2419L67.5198 12.566L72.5552 5.68301H68.9618L63.9264 12.566V5.68301H60.3558V20.6038H63.9264V13.2679L69.1907 20.6038ZM52.0244 8.17358C53.7868 8.17358 54.3362 9.62264 54.3362 11.5019V11.7962H49.3694C49.461 9.41886 50.3307 8.17358 52.0244 8.17358ZM39.6648 17.7962H34.6294C35.6135 15.5547 35.8882 11.4792 35.8882 8.89811V8.44528H39.6648V17.7962Z" fill="white"/>
<path d="M13.8474 20.6038H10.2082V2.78491H8.58311C5.60763 2.78491 4.05123 4.2566 4.05123 6.45283C4.05123 8.9434 5.12698 10.0981 7.34714 11.5698L9.1782 12.7925L3.9139 20.6038H0L4.73787 13.6302C2.01417 11.7057 0.480654 9.82642 0.480654 6.6566C0.480654 2.69434 3.27303 0 8.56022 0H13.8245V20.6038H13.8474Z" fill="#DF0000"/>
</g>
<defs>
<clipPath id="clip0_214_12">
<rect width="84" height="24" fill="white"/>
</clipPath>
</defs>
</svg>
