<svg width="89" height="24" viewBox="0 0 89 24" fill="none" xmlns="http://www.w3.org/2000/svg">
<g clip-path="url(#clip0_214_15)">
<path fill-rule="evenodd" clip-rule="evenodd" d="M12.1364 24C18.8114 24 24.2727 18.624 24.2727 12C24.2727 5.376 18.8114 0 12.1364 0C5.43709 0 0 5.376 0 12C0 18.624 5.43709 24 12.1364 24Z" fill="#DF0000"/>
<path fill-rule="evenodd" clip-rule="evenodd" d="M12.1365 3.75C16.3084 3.75 19.1402 6.925 19.1402 10.35C19.1402 11.725 18.8368 12.925 18.1288 14.425C13.9822 14.425 13.2237 17.15 13.0467 18.975L12.9203 20.25H11.3527L11.2263 18.975C11.0493 17.15 10.2908 14.425 6.14418 14.425C5.43622 12.925 5.13281 11.725 5.13281 10.35C5.13281 6.925 7.96463 3.75 12.1365 3.75Z" fill="white"/>
<path fill-rule="evenodd" clip-rule="evenodd" d="M35.1958 3.75C31.2515 3.75 28.2932 6.125 28.3185 10.25H31.9847C31.9341 8.6 32.9961 7 35.1958 7C36.8645 7 37.9265 8.1 37.9265 9.5C37.9265 10.95 36.7634 11.75 34.8924 12.65C32.4398 13.825 30.9733 14.375 28.3185 15.25V20H41.4662V16.75H33.2742C34.5414 16.228 35.7753 15.654 36.8898 15.125C39.8481 13.725 41.5927 12.15 41.5927 9.325C41.5927 5.925 39.0137 3.75 35.1958 3.75ZM47.2816 7.25H54.8668V4H43.7418V20H47.2816V7.25ZM60.1765 4H56.6367V20H60.1512L66.7503 9.775V20H70.2901V4H66.7503L60.1765 14.225V4ZM88.0648 14H84.3986C83.8424 15.775 82.1483 17 80.1509 17C77.2432 17 75.3469 14.525 75.3469 12C75.3469 9.475 77.1927 7 80.252 7C82.2748 7 83.8424 8.225 84.3986 10H88.0648C87.5339 6.425 84.6768 3.75 80.1509 3.75C75.1447 3.75 71.8072 7.225 71.8072 12C71.8072 16.775 75.1447 20.25 80.1509 20.25C84.6768 20.25 87.5339 17.625 88.0648 14Z" fill="white"/>
</g>
<defs>
<clipPath id="clip0_214_15">
<rect width="89" height="24" fill="white"/>
</clipPath>
</defs>
</svg>
