<svg width="114" height="24" viewBox="0 0 114 24" fill="none" xmlns="http://www.w3.org/2000/svg">
<path d="M18.7601 8.24999C18.7069 8.12252 18.6405 8.00133 18.5619 7.88855L17.4227 6.33666L17.3975 6.31084C17.3147 6.20522 17.2211 6.10905 17.1183 6.02399C17.2719 5.78876 17.4143 5.55928 17.5344 5.34127C18.009 4.4807 18.4865 3.37056 17.9699 2.45836C17.9183 2.36857 17.8585 2.28405 17.7912 2.20593L16.8 0.829015C16.236 0 15.1331 0 14.7617 0C14.6026 0 14.4295 0 14.2396 0.02008C11.6049 0.264168 9.00017 0.775348 6.46342 1.54616C5.96887 1.69684 5.55235 2.04226 5.30467 2.50713C3.72709 5.45027 1.22252 11.7238 0.211756 14.7243C0.0889003 15.0858 -0.232199 16.041 0.284352 16.7897L1.42076 18.3416C1.55397 18.5378 1.73424 18.6952 1.94411 18.7988C2.15397 18.9023 2.38631 18.9484 2.6186 18.9325C2.37568 19.5579 2.08251 20.4299 1.93731 20.9606C1.88435 21.1775 1.87612 21.4033 1.91314 21.6236C1.95017 21.844 2.03164 22.0539 2.15231 22.24C2.4637 22.7728 2.83892 23.2633 3.26918 23.7001C3.69638 24.139 4.23248 24.0386 4.73227 23.7661C6.56673 22.7707 11.0928 19.7931 15.2141 15.1403C17.4394 12.6217 19.366 9.70435 18.7601 8.24999Z" fill="white"/>
<path d="M1.66215 15.3751C2.68085 12.2618 5.0252 6.2598 6.4568 3.4777C6.57168 3.25012 6.7671 3.08022 7.00011 3.00537C9.41021 2.25603 11.8828 1.75451 14.3836 1.50776C16.3341 1.358 15.5028 3.41146 14.9405 4.54907C14.4625 5.46399 13.9252 6.34259 13.3323 7.17853C13.936 6.9164 14.5815 6.77952 15.2339 6.77532C17.6108 6.77532 16.9072 9.26942 13.1014 13.8861C10.556 16.9735 6.11452 20.3978 3.86525 21.6996C3.80965 21.7326 3.74698 21.75 3.68324 21.75C3.6195 21.75 3.55683 21.7326 3.50124 21.6996C3.41159 21.6334 3.38986 21.5009 3.43604 21.3166C3.8082 19.914 4.7291 17.8605 5.25339 16.3543C4.16678 16.4666 3.11006 16.6624 2.30054 16.7402C1.27641 16.8439 1.472 15.9568 1.66215 15.3751Z" fill="#DF0000"/>
<path d="M7.92625 10.0166C7.44769 10.8096 7.10418 11.4057 6.79297 12C9.78178 11.5707 11.009 11.0064 11.2879 10.3428C11.5669 9.6792 10.1312 9.57609 7.92625 10.0166Z" fill="white"/>
<path d="M9.27497 4.17459L9.25637 4.23116C9.25637 4.23116 8.85648 5.27263 8.30469 6.75C11.0388 6.13776 11.8324 5.33585 12.0246 4.75356C12.2199 4.22118 12.0184 3.15641 9.27497 4.17459Z" fill="white"/>
<path d="M33.9082 11.7598C34.6992 11.4966 35.3716 10.9605 35.8059 10.247C36.2222 9.51388 36.448 8.68747 36.4624 7.84386C36.5167 7.35504 36.4616 6.86021 36.301 6.3955C36.1403 5.93078 35.8783 5.50792 35.5341 5.15776C34.8741 4.55055 33.8484 4.24695 32.4567 4.24695H27.7741L24.1582 20.096H28.9281C29.6965 20.0966 30.4619 19.998 31.2053 19.8027C31.9316 19.6156 32.6169 19.2946 33.2261 18.8559C33.8375 18.4063 34.3419 17.8264 34.7032 17.1578C35.118 16.3638 35.3361 15.4813 35.3392 14.5849C35.3623 14.0273 35.2606 13.4717 35.0417 12.9588C34.9322 12.7059 34.7732 12.4776 34.574 12.2876C34.3749 12.0975 34.1398 11.9496 33.8826 11.8524C33.8826 11.8216 33.8826 11.801 33.8826 11.7958C33.894 11.7862 33.9029 11.7738 33.9082 11.7598ZM31.8567 15.4957C31.7578 15.7814 31.6103 16.0478 31.4207 16.283C31.2209 16.5319 30.9678 16.7325 30.6801 16.8697C30.3923 17.0069 30.0775 17.0772 29.7589 17.0754H28.0562L28.9127 13.3396H30.7078C30.8939 13.3246 31.0811 13.3484 31.2577 13.4095C31.4342 13.4706 31.5962 13.5677 31.7336 13.6946C31.8502 13.8252 31.9387 13.9785 31.9934 14.145C32.0481 14.3115 32.0679 14.4875 32.0516 14.662C32.0355 14.9471 31.9767 15.2282 31.8772 15.4957H31.8567ZM33.1235 9.1509C33.0255 9.3995 32.883 9.62797 32.7029 9.825C32.5223 10.0222 32.3044 10.1814 32.0618 10.2933C31.8108 10.4083 31.5376 10.4663 31.2617 10.4631H29.5794L30.3282 7.2521H31.8926C32.2736 7.21807 32.6549 7.31418 32.9747 7.52483C33.0892 7.6352 33.1766 7.77073 33.23 7.92074C33.2834 8.07076 33.3014 8.23116 33.2825 8.38932C33.2737 8.65048 33.2199 8.90814 33.1235 9.1509ZM44.3609 4.24181H39.432L35.8161 20.096H39.0627L40.4834 13.8336H41.8426L42.8991 20.096H46.4073L45.0686 13.2367C45.986 12.8944 46.7904 12.3029 47.392 11.5283C48.0479 10.6187 48.4063 9.52734 48.4178 8.40476C48.5375 6.98109 48.2263 5.9262 47.4843 5.24009C46.6054 4.52498 45.4901 4.16852 44.3609 4.24181ZM45.0635 9.74266C44.9439 9.99218 44.7683 10.2106 44.5506 10.3807C44.3264 10.5435 44.0717 10.659 43.8018 10.7204C43.5215 10.7891 43.2339 10.8236 42.9453 10.8233H41.1758L42.0016 7.22122H43.7249C44.1504 7.19903 44.5711 7.32041 44.9199 7.56599C45.077 7.71515 45.193 7.90246 45.2568 8.1098C45.3206 8.31714 45.33 8.53749 45.2841 8.74953C45.2866 9.09307 45.2112 9.43269 45.0635 9.74266ZM59.768 7.59172C59.6714 6.96293 59.4366 6.36357 59.0807 5.837C58.7084 5.30594 58.207 4.87907 57.6241 4.59687C56.9306 4.2685 56.1699 4.10811 55.4033 4.1286C54.5871 4.10768 53.7763 4.26756 53.0287 4.59687C52.3991 4.88425 51.8299 5.28943 51.3515 5.79069C50.8987 6.27124 50.5263 6.82209 50.2488 7.42191C49.9814 7.99263 49.7784 8.59154 49.6436 9.2075L48.3922 14.5025C48.2182 15.2141 48.1661 15.9501 48.2383 16.6792C48.2988 17.335 48.5228 17.9649 48.8897 18.5111C49.2771 19.0667 49.8094 19.5047 50.4283 19.777C51.2384 20.1205 52.114 20.2804 52.9928 20.2452C53.7044 20.2566 54.4121 20.1362 55.0802 19.8902C55.671 19.6642 56.2063 19.3132 56.6497 18.861C57.1028 18.3868 57.4723 17.8387 57.7421 17.2401C58.0539 16.5576 58.2912 15.8434 58.4499 15.1097L59.7065 9.61916C59.859 8.9539 59.8799 8.26507 59.768 7.59172ZM56.4548 9.2075L55.0648 15.3361C54.9694 15.8143 54.7315 16.2521 54.3827 16.5917C54.0588 16.8944 53.6302 17.0587 53.1877 17.0497C52.9295 17.0767 52.6687 17.0397 52.4281 16.9419C52.1875 16.8441 51.9746 16.6885 51.808 16.4888C51.6687 16.2396 51.5826 15.9641 51.5552 15.6797C51.5278 15.3953 51.5598 15.1083 51.649 14.837L52.962 9.07371C53.0032 8.87334 53.0669 8.67827 53.1518 8.49224C53.2456 8.28316 53.372 8.09036 53.5262 7.92105C53.7037 7.71864 53.9235 7.55793 54.1699 7.45032C54.4163 7.34272 54.6833 7.29085 54.952 7.29841C55.2381 7.28776 55.5218 7.35535 55.7726 7.49395C55.9867 7.6159 56.164 7.79371 56.2855 8.00853C56.3973 8.19531 56.4673 8.40425 56.4907 8.62088C56.5094 8.8171 56.4973 9.01506 56.4548 9.2075ZM70.3694 4.24181L68.3178 13.6277H68.2255C68.2043 13.3409 68.1492 13.0576 68.0614 12.7838C67.9452 12.3584 67.8169 11.9073 67.6767 11.4305L67.2818 10.0874C67.1965 9.82312 67.1297 9.55317 67.0818 9.27954L65.6919 4.24695H62.83L59.209 20.1012H62.435L64.4507 11.1938H64.5174L65.42 14.59L67.1126 20.1012H69.9488L73.5698 4.24695L70.3694 4.24181ZM75.8522 4.24181L72.2312 20.096H75.4778L79.0936 4.24181H75.8522ZM86.1356 4.24181H81.4375L77.8165 20.096H82.5864C83.3549 20.0965 84.1202 19.9979 84.8636 19.8027C85.5899 19.6156 86.2752 19.2946 86.8844 18.8559C87.4958 18.4063 88.0003 17.8264 88.3615 17.1578C88.7763 16.3638 88.9944 15.4813 88.9975 14.5849C89.0206 14.0273 88.919 13.4717 88.7 12.9588C88.5905 12.7059 88.4315 12.4776 88.2324 12.2876C88.0333 12.0975 87.7981 11.9496 87.5409 11.8524C87.5409 11.8216 87.5409 11.801 87.5409 11.7958C87.5471 11.7775 87.5471 11.7576 87.5409 11.7392C88.3319 11.476 89.0042 10.9399 89.4386 10.2264C89.8549 9.4933 90.0807 8.66689 90.0951 7.82328C90.1494 7.33445 90.0942 6.83963 89.9336 6.37491C89.773 5.9102 89.511 5.48733 89.1667 5.13717C88.5273 4.54026 87.5187 4.24181 86.1407 4.24181H86.1356ZM85.5406 15.4957C85.4418 15.7814 85.2943 16.0478 85.1047 16.283C84.9028 16.5347 84.6463 16.7369 84.3548 16.8742C84.0633 17.0115 83.7444 17.0803 83.4224 17.0754H81.7196L82.5761 13.3396H84.3712C84.5574 13.3246 84.7446 13.3484 84.9211 13.4095C85.0977 13.4706 85.2597 13.5677 85.397 13.6946C85.5137 13.8252 85.6021 13.9785 85.6568 14.145C85.7116 14.3115 85.7314 14.4875 85.715 14.662C85.699 14.9471 85.6402 15.2282 85.5406 15.4957ZM86.7869 9.1509C86.689 9.3995 86.5465 9.62797 86.3664 9.825C86.1858 10.0222 85.9678 10.1814 85.7253 10.2933C85.4743 10.4083 85.2011 10.4663 84.9252 10.4631H83.2429L83.9917 7.2521H85.556C85.9371 7.21807 86.3184 7.31418 86.6382 7.52483C86.7527 7.6352 86.8401 7.77073 86.8935 7.92074C86.9469 8.07076 86.9648 8.23116 86.9459 8.38932C86.9371 8.65048 86.8834 8.90814 86.7869 9.1509ZM100.999 5.837C100.627 5.30547 100.126 4.87849 99.5425 4.59687C98.849 4.26832 98.0883 4.10792 97.3217 4.1286C96.5037 4.10743 95.6912 4.26731 94.9419 4.59687C94.3125 4.88458 93.7433 5.28971 93.2647 5.79069C92.8119 6.27124 92.4395 6.82209 92.162 7.42191C91.8923 7.99171 91.6893 8.59089 91.5568 9.2075L90.3054 14.5025C90.1302 15.2139 90.0781 15.9502 90.1515 16.6792C90.2133 17.3347 90.4372 17.9643 90.8029 18.5111C91.1899 19.0671 91.7223 19.5051 92.3415 19.777C93.1517 20.12 94.0273 20.2799 94.906 20.2452C95.6176 20.2568 96.3253 20.1365 96.9934 19.8902C97.5842 19.6642 98.1195 19.3132 98.5629 18.861C99.0191 18.3891 99.392 17.8427 99.6656 17.2452C99.9773 16.5628 100.215 15.8485 100.373 15.1149L101.63 9.62431C101.789 8.9604 101.817 8.27156 101.712 7.59687C101.607 6.96375 101.361 6.36237 100.994 5.837H100.999ZM98.3731 9.2075L96.978 15.3361C96.8835 15.8146 96.6455 16.2527 96.2959 16.5917C95.9723 16.8949 95.5435 17.0592 95.1009 17.0497C94.8427 17.0767 94.5819 17.0397 94.3413 16.9419C94.1007 16.8441 93.8878 16.6885 93.7212 16.4888C93.5801 16.2403 93.4929 15.9647 93.4655 15.68C93.4381 15.3953 93.4711 15.108 93.5622 14.837L94.8752 9.07371C94.9177 8.87369 94.9813 8.67877 95.065 8.49224C95.1571 8.28342 95.2818 8.09062 95.4342 7.92105C95.6007 7.74176 95.799 7.59517 96.0189 7.48881C96.2845 7.36844 96.5739 7.31037 96.8652 7.31899C97.1513 7.30861 97.4349 7.37618 97.6858 7.51453C97.8993 7.63729 98.0763 7.81491 98.1987 8.02911C98.3084 8.21687 98.3783 8.42535 98.4039 8.64146C98.4205 8.83088 98.4084 9.02173 98.368 9.2075H98.3731ZM110.487 4.24181L108.672 7.45278C108.398 7.95364 108.123 8.48194 107.846 9.03769C107.569 9.59344 107.294 10.1286 107.02 10.6432H106.882C106.882 10.4168 106.841 10.1286 106.82 9.85587C106.8 9.58315 106.779 9.25896 106.759 8.95536C106.738 8.65176 106.713 8.34815 106.687 8.04455C106.661 7.74095 106.625 7.45793 106.59 7.20064L106.39 5.71865C106.331 5.26239 106.258 4.76839 106.169 4.23666H102.738L104.61 13.7358C104.364 14.7993 104.119 15.8576 103.876 16.9108C103.634 17.9639 103.387 19.024 103.138 20.0909H106.338L107.79 13.7358L114.001 4.23666L110.487 4.24181Z" fill="white"/>
</svg>
