<svg width="137" height="24" viewBox="0 0 137 24" fill="none" xmlns="http://www.w3.org/2000/svg">
<g clip-path="url(#clip0_86_53)">
<path d="M8.73963 20.4376H11.7175V3.49695H7.38609C3.03013 3.49695 0.741415 5.71507 0.741415 8.98133C0.741415 11.5894 1.99652 13.125 4.23602 14.7094L0.347656 20.4376H3.57155L7.9029 14.027L6.40169 13.0276C4.58055 11.8088 3.6946 10.8582 3.6946 8.8107C3.6946 7.00695 4.97432 5.7882 7.4107 5.7882H8.73963V20.4376ZM66.1545 20.6814C67.508 20.6814 68.4679 20.4376 69.1816 19.9257V17.5614C68.4433 18.0732 67.5573 18.3901 66.3268 18.3901C64.235 18.3901 63.3736 16.7814 63.3736 14.2463C63.3736 11.5894 64.4318 10.2245 66.3514 10.2245C67.4835 10.2245 68.5909 10.6145 69.1816 10.9801V8.5182C68.5663 8.17695 67.4835 7.9332 66.0315 7.9332C62.2908 7.9332 60.3466 10.5901 60.3466 14.3194C60.3466 18.4145 62.2416 20.6814 66.1545 20.6814ZM47.8447 19.6088V17.2445C46.9342 17.8538 45.4084 18.3901 43.981 18.3901C41.8399 18.3901 41.0278 17.3907 40.9048 15.3432H47.9678V13.8076C47.9678 9.54194 46.0729 7.9332 43.1443 7.9332C39.5758 7.9332 37.8777 10.6388 37.8777 14.3438C37.8777 18.6094 39.9943 20.6814 43.7349 20.6814C45.6053 20.6814 46.9834 20.1938 47.8447 19.6088ZM21.0199 8.17695V13.0276H17.107V8.17695H14.1784V20.4376H17.107V15.3188H21.0199V20.4376H23.9486V8.17695H21.0199ZM37.164 18.1463H35.8597V8.17695H27.3201V9.22507C27.3201 12.2232 27.1232 16.0988 26.0896 18.1463H25.1791V23.2407H27.8862V20.4376H34.4569V23.2407H37.164V18.1463ZM57.1965 20.4376H60.5189L55.8184 13.8319L59.9528 8.17695H56.9997L52.8652 13.8319V8.17695H49.9366V20.4376H52.8652V14.417L57.1965 20.4376ZM43.095 10.2245C44.547 10.2245 44.99 11.4188 44.99 12.9545V13.1982H40.9048C40.9786 11.2482 41.6923 10.2245 43.095 10.2245ZM32.9312 18.1463H28.7967C29.6088 16.2938 29.8303 12.9545 29.8303 10.8338V10.4682H32.9312V18.1463Z" fill="white"/>
<path d="M94.0642 18.0196C92.2055 19.6448 89.7804 20.625 87.1344 20.625C81.584 20.625 77.425 16.3674 77.425 11.5007C77.425 6.92428 81.1092 3.18742 85.6769 3.18742C89.9878 3.18742 93.098 6.49777 93.098 10.0819C93.098 13.4417 90.422 16.1669 87.1344 16.1669C84.1263 16.1669 82.0032 13.9101 82.0032 11.5007C82.0032 9.33821 83.6921 7.64561 85.6784 7.64561C87.4364 7.64561 88.5213 8.91467 88.5213 10.0819C88.5213 11.0951 87.8015 11.7072 87.1344 11.7072C86.8986 11.7072 86.8083 11.6578 86.7137 11.5995C86.9286 11.3256 87.0353 10.9694 86.9811 10.5983C86.8745 9.88145 86.2043 9.38612 85.4847 9.49237C84.867 9.58366 84.4749 9.99969 84.2811 10.3079C84.0617 10.6537 83.9445 11.0697 83.9445 11.5007C83.9445 13.2202 85.5628 14.3322 87.1344 14.3322C89.4303 14.3336 91.1567 12.3477 91.1567 10.0819C91.1567 7.30889 88.7301 5.02068 85.6784 5.02068C82.1339 5.02068 79.3677 7.9928 79.3677 11.5007C79.3677 15.4755 82.789 18.7903 87.1359 18.7903C91.9411 18.7903 95.7352 14.8275 95.7352 10.0805C95.7352 4.97729 91.373 0.5625 85.6784 0.5625C79.6202 0.5625 74.791 5.51005 74.791 11.5007C74.791 17.8969 80.2122 23.25 87.1359 23.25C90.4475 23.25 93.4855 22.0183 95.8042 19.992L94.0642 18.0196ZM86.5769 11.4723C86.5754 11.4708 86.5769 11.4692 86.5769 11.4723V11.4723Z" fill="#DF0000"/>
<path d="M102.335 3.49695V20.4376H112.055V18.1463H105.313V13.0763H110.923V10.785H105.313V5.7882H111.932V3.49695H102.335Z" fill="white"/>
<path d="M125.421 18.1463H124.117V8.17694H115.577V9.22507C115.577 12.2232 115.38 16.0988 114.346 18.1463H113.436V23.2407H116.143V20.4376H122.714V23.2407H125.421V18.1463ZM121.188 18.1463H117.053C117.865 16.2938 118.087 12.9545 118.087 10.8338V10.4681H121.188V18.1463Z" fill="white"/>
<path d="M136.15 12.077C136.15 9.10319 134.624 7.98193 131.524 7.98193C129.58 7.98193 128.053 8.59131 127.168 9.10319V11.5163C127.955 10.9313 129.677 10.2976 131.179 10.2976C132.581 10.2976 133.222 10.785 133.222 12.1013V12.7838H132.754C128.275 12.7838 126.281 14.2463 126.281 16.7326C126.281 19.2188 127.807 20.6082 130.072 20.6082C131.794 20.6082 132.532 20.0476 133.099 19.4626H133.222C133.246 19.7794 133.345 20.1938 133.443 20.4376H136.298C136.199 19.4382 136.15 18.4388 136.15 17.4394V12.077ZM133.222 17.5126C132.853 18.0488 132.163 18.4876 131.129 18.4876C129.899 18.4876 129.284 17.7563 129.284 16.6594C129.284 15.2213 130.292 14.7094 132.803 14.7094H133.222V17.5126Z" fill="white"/>
</g>
<defs>
<clipPath id="clip0_86_53">
<rect width="137" height="24" fill="white"/>
</clipPath>
</defs>
</svg>
